<svg id="logo" xmlns="http://www.w3.org/2000/svg" viewBox="0 0 291.9 82.6">
                                <style type="text/css">.st0{fill:#00274C;} .st1{fill:#FFCB05;}</style>
                                <g>
                                  <path class="st0" d="M58.4,9.4C58,9.3,47.3,4.1,33.2,4.1c-14,0-24.8,5.2-25.1,5.3l-2.8,1.3v51.6l27.9,16.2l27.9-16.2V10.7L58.4,9.4
                                    z"></path>
                                  <path class="st1" d="M33.2,13.7c-7.7,0-14.6,2-18.3,3.3v39.8l18.3,10.6l18.3-10.6l0,0l-18.3-9.9V13.7z"></path>
                                  <path class="st0" d="M98.6,41.8c0.3-1,0.5-3,0.5-3.4c0-0.3,0-0.7-0.4-0.7s-0.5,0.4-0.5,0.6c-0.1,0.7-0.4,1.4-0.8,1.9
                                    c-0.7,0.9-2,0.9-3.9,0.9c-2.6,0-3.4-0.3-3.9-0.7c-0.6-0.6-0.7-3-0.7-7.5V27c0.1-5.2,0.1-6.2,0.1-7.2c0.1-1.2,0.3-1.6,1.1-1.7
                                    c0.4-0.1,0.8-0.1,1.1-0.1c0.3,0,0.5-0.2,0.5-0.4c0-0.5-0.5-0.5-0.7-0.5c-0.7,0-2.1,0.1-3,0.1c-0.3,0-0.6,0-0.6,0s-0.2,0-0.4,0
                                    c-0.7,0-2.2-0.1-3.3-0.1c-0.2,0-0.7,0-0.7,0.5c0,0.2,0.2,0.4,0.4,0.4c0.3,0,0.9,0,1.1,0.1c0.9,0.2,1.2,0.6,1.3,1.7
                                    c0.1,1.1,0.1,2,0.1,7.2v5.8c0,3.3,0,5.8-0.2,7.2c-0.1,1-0.3,1.6-0.8,1.7c-0.4,0.1-0.7,0.1-1,0.1s-0.5,0.2-0.5,0.4
                                    c0,0.4,0.5,0.4,0.7,0.4c0.5,0,1.1,0,1.7-0.1H86c0.5,0,0.9,0,1.2,0c0.1,0,0.2,0,0.2,0c1,0,2.1,0,3.4,0.1c0.3,0,0.7,0,1.1,0
                                    c1.2,0,2.6,0.1,4.4,0.1C98.1,42.8,98.3,42.7,98.6,41.8"></path>
                                  <path class="st0" d="M128.4,42.3c0-0.3-0.2-0.4-0.5-0.4c-0.3,0-0.8,0-1.3-0.2c-0.7-0.2-1.6-0.8-2.8-3.6c-1.4-3.6-4.5-11.6-6.3-16.4
                                    c-0.8-2-1.3-3.4-1.5-3.8c-0.4-1-0.6-1.3-0.9-1.3s-0.5,0.3-0.9,1.4l-7.5,20.8c-0.6,1.8-1.3,2.8-2.7,3c-0.3,0-0.7,0.1-1,0.1
                                    c-0.4,0-0.5,0.2-0.5,0.4c0,0.5,0.6,0.5,0.8,0.5c1.1,0,2.2-0.1,3-0.1c0.4,0,0.6,0,0.8,0c0.1,0,0.5,0,0.8,0c0.6,0,1.3,0.1,1.8,0.1
                                    c0.6,0,0.7-0.2,0.7-0.5c0-0.1-0.1-0.4-0.5-0.4h-0.3c-0.4,0-1.1-0.2-1.1-0.8s0.2-1.4,0.5-2.2l2-5.9c0.1-0.2,0.1-0.2,0.2-0.2h7.2
                                    c0.1,0,0.1,0,0.1,0.1l3.1,8.2c0.1,0.3,0.1,0.5,0,0.6c0,0.1-0.1,0.1-0.1,0.1c-0.3,0.1-0.4,0.3-0.4,0.4c0,0.4,0.4,0.4,1,0.4h0.2
                                    c1.5,0,3.4,0.1,5.3,0.1C128.3,42.7,128.4,42.5,128.4,42.3 M111.6,31.3l2.9-9c0-0.1,0.1-0.2,0.1-0.2s0,0.1,0.1,0.2l3.2,9H111.6z"></path>
                                  <path class="st0" d="M153.8,17.1c-0.7,0-1.6,0-2.2,0.1c-0.3,0-0.5,0-0.6,0s-0.2,0-0.5,0c-0.7,0-2-0.1-3.1-0.1c-0.2,0-0.7,0-0.7,0.4
                                    c0,0.2,0.2,0.4,0.4,0.4c0.3,0,0.9,0,1.1,0.1c0.9,0.2,1.2,0.6,1.3,1.7s0.1,2,0.1,7.2v4.2c0,4-0.6,6.4-1.9,8.1
                                    c-1.2,1.4-3.2,2.3-5.1,2.3c-1.9,0-3.3-0.3-4.9-1.8c-1.2-1.2-2.5-3-2.5-8.1v-4.7c0-5.2,0-6.1,0.1-7.2c0.1-1.2,0.3-1.6,1.1-1.7
                                    c0.4-0.1,0.6-0.1,0.8-0.1c0.3,0,0.5-0.2,0.5-0.4c0-0.4-0.5-0.4-0.7-0.4c-0.7,0-1.7,0-2.5,0.1c-0.4,0-0.7,0-0.8,0s-0.4,0-0.7,0
                                    c-0.8,0-2.1-0.1-3.1-0.1c-0.2,0-0.7,0-0.7,0.4c0,0.2,0.2,0.4,0.5,0.4s0.8,0,1.1,0.1c0.9,0.2,1.2,0.6,1.3,1.7s0.1,2,0.1,7.2v4.9
                                    c0,5.4,1.6,7.6,3,8.9c2.2,2.1,5.3,2.4,7,2.4c1.8,0,4.5-0.3,7-2.5c2.8-2.5,3.1-6.7,3.1-10.1v-3.6c0-5.2,0-6.1,0.1-7.2
                                    c0.1-1.2,0.3-1.6,1.1-1.7c0.4-0.1,0.6-0.1,0.8-0.1c0.3,0,0.5-0.2,0.5-0.4C154.5,17.1,154,17.1,153.8,17.1"></path>
                                  <path class="st0" d="M173.2,36c0-2.6-0.8-4.7-4.9-8l-0.9-0.7c-3.1-2.5-4-3.6-4-5.5c0-2.2,1.6-3.7,3.9-3.7c2.8,0,3.7,1.2,4,1.7
                                    c0.2,0.3,0.4,1.2,0.4,1.6c0,0.2,0.1,0.6,0.4,0.6c0.4,0,0.4-0.6,0.4-1c0-1.8,0.1-2.8,0.1-3.3c0-0.1,0-0.2,0-0.3
                                    c0-0.4-0.4-0.4-0.5-0.4c-0.3,0-0.5,0-1.1-0.2c-1-0.2-2-0.3-3.1-0.3c-4.3,0-7.1,2.5-7.1,6.2c0,2.3,0.7,4.4,4.4,7.4l1.5,1.2
                                    c3,2.5,3.8,3.7,3.8,5.9c0,2.1-1.6,4.3-4.6,4.3c-1.2,0-4.2-0.3-4.8-3.3c-0.1-0.5-0.1-0.9-0.1-1.2c0-0.2,0-0.5-0.4-0.5
                                    s-0.4,0.5-0.4,0.7c0,0.1,0,0.3,0,0.5c-0.1,0.7-0.1,1.8-0.1,3c0,0.9,0,1.1,0.6,1.4l0,0c1.3,0.6,2.8,0.9,4.6,0.9c2,0,3.8-0.5,5.1-1.4
                                    C172.4,40.2,173.2,37.8,173.2,36"></path>
                                  <path class="st0" d="M202.4,41.9c-0.3,0-0.8,0-1.3-0.2c-0.7-0.2-1.6-0.8-2.7-3.6c-1.5-3.7-4.8-12.3-6.5-16.9
                                    c-0.6-1.7-1.1-2.9-1.2-3.2c-0.4-1-0.6-1.3-0.9-1.3c-0.3,0-0.5,0.3-0.9,1.4l0,0l-7.7,20.7c-0.6,1.8-1.3,2.8-2.7,3
                                    c-0.3,0-0.7,0.1-0.9,0.1c-0.4,0-0.5,0.2-0.5,0.4c0,0.4,0.6,0.4,0.8,0.4c1.1,0,2.2,0,3-0.1c0.4,0,0.6,0,0.7,0c0.1,0,0.5,0,0.9,0
                                    c0.6,0,1.3,0.1,1.8,0.1c0.6,0,0.7-0.2,0.7-0.4c0-0.1-0.1-0.4-0.5-0.4h-0.3c-0.4,0-1.1-0.2-1.1-0.8s0.2-1.4,0.5-2.2l2-5.9
                                    c0.1-0.2,0.1-0.2,0.2-0.2h7.2c0.1,0,0.1,0,0.1,0.1l3.1,8.2c0.1,0.3,0.1,0.5,0,0.6c0,0.1-0.1,0.1-0.1,0.1c-0.3,0.1-0.4,0.3-0.4,0.4
                                    c0,0.4,0.4,0.4,1,0.4h0.2c1.5,0,3.4,0.1,5.3,0.1c0.7,0,0.9-0.2,0.9-0.4C202.9,42,202.7,41.9,202.4,41.9 M192.3,31.3L192.3,31.3H186
                                    l2.9-9c0-0.1,0.1-0.1,0.1-0.2c0,0,0,0.1,0.1,0.2L192.3,31.3z"></path>
                                  <path class="st0" d="M232.6,17.1c-0.9,0-1.7,0-2.2,0.1c-0.3,0-0.5,0-0.6,0s-0.4,0-0.7,0c-0.7,0-1.8-0.1-2.8-0.1
                                    c-0.3,0-0.9,0-0.9,0.4c0,0.3,0.2,0.4,0.5,0.4c0.2,0,1,0,1.6,0.2c0.9,0.2,1.1,0.9,1.2,3l0.4,16.5c-0.6-0.6-1.5-1.6-2.6-2.9
                                    c-1.5-1.6-3.3-3.6-5.1-5.5c-5-5.4-10.1-10.9-10.6-11.5c-0.1-0.1-0.2-0.2-0.3-0.3c-0.4-0.5-0.7-0.8-1-0.8c-0.5,0-0.5,0.6-0.5,1.8
                                    v19.1c0,3-0.2,3.9-0.9,4.1c-0.6,0.2-1.2,0.2-1.3,0.2c-0.3,0-0.5,0.2-0.5,0.4c0,0.4,0.5,0.4,0.7,0.4c1,0,2-0.1,2.6-0.1
                                    c0.3,0,0.5,0,0.6,0s0.3,0,0.5,0c0.6,0,1.7,0.1,3,0.1c0.2,0,0.8,0,0.8-0.4c0-0.2-0.1-0.4-0.5-0.4c-0.3,0-1,0-1.6-0.2
                                    c-0.7-0.2-1.1-0.8-1.2-3.7l-0.4-15.5c1.1,1.3,4.7,5.2,8.4,9.2c3.5,3.8,8.4,8.7,8.7,9.1c1.9,1.9,2.2,2.2,2.6,2.2
                                    c0.5,0,0.5-0.4,0.5-2.5l0.1-19.6c0-2,0.1-2.6,1.1-2.8c0.4-0.1,0.6-0.1,0.8-0.1c0.4,0,0.5-0.2,0.5-0.4
                                    C233.3,17.1,232.8,17.1,232.6,17.1"></path>
                                  <path class="st0" d="M266.1,17.5c0-0.4-0.5-0.4-0.8-0.4c-0.9,0-1.7,0-2.2,0.1c-0.3,0-0.5,0-0.6,0s-0.4,0-0.7,0
                                    c-0.7,0-1.8-0.1-2.8-0.1c-0.3,0-0.9,0-0.9,0.4c0,0.3,0.2,0.4,0.5,0.4c0.2,0,1,0,1.6,0.2c0.9,0.2,1.1,0.8,1.2,3l0.4,16.5
                                    c-0.6-0.6-1.4-1.6-2.5-2.8c-1.5-1.7-3.4-3.7-5.2-5.6c-5-5.4-10.1-10.9-10.6-11.5c-0.1-0.1-0.2-0.2-0.3-0.3c-0.5-0.5-0.8-0.8-1-0.8
                                    c-0.5,0-0.5,0.6-0.5,1.8v19.1c0,3-0.2,3.9-0.9,4.1c-0.6,0.2-1.2,0.2-1.3,0.2c-0.3,0-0.4,0.2-0.4,0.4c0,0.4,0.5,0.4,0.7,0.4
                                    c1,0,2-0.1,2.7-0.1c0.3,0,0.5,0,0.6,0s0.2,0,0.5,0c0.6,0,1.7,0.1,3.1,0.1c0.2,0,0.8,0,0.8-0.4c0-0.2-0.1-0.4-0.5-0.4
                                    c-0.3,0-1,0-1.6-0.2c-0.7-0.2-1.1-0.8-1.2-3.7l-0.4-15.5c1.4,1.5,4.8,5.3,8.4,9.2c3.5,3.8,8.3,8.7,8.7,9.1c1.9,1.9,2.2,2.2,2.6,2.2
                                    s0.5-0.4,0.5-2.5l0.1-19.6c0-2,0.1-2.6,1.1-2.8c0.4-0.1,0.6-0.1,0.8-0.1C266,17.9,266.1,17.7,266.1,17.5"></path>
                                  <path class="st0" d="M286.2,41.8c0.2-0.7,0.4-3,0.4-3.3c0-0.2,0-0.7-0.4-0.7s-0.4,0.4-0.5,0.6c-0.2,1.3-0.6,1.9-1.4,2.3
                                    c-0.8,0.4-2.3,0.4-3.1,0.4c-3.3,0-3.6-0.5-3.7-2.6c0-0.5,0-2.7,0-4.2c0-0.6,0-1.2,0-1.5v-2.9c0,0,0,0,0.1-0.1
                                    c0.6,0,3.9,0.1,4.8,0.2c1.2,0.1,1.4,0.6,1.6,1c0.1,0.4,0.1,0.7,0.1,1c0,0.3,0.2,0.5,0.4,0.5c0.4,0,0.4-0.5,0.4-0.8
                                    c0-0.2,0.1-1.5,0.1-2.1c0.1-0.7,0.2-1.2,0.2-1.5c0-0.2,0.1-0.3,0.1-0.4c0-0.4-0.3-0.4-0.4-0.4c-0.2,0-0.3,0.2-0.6,0.4l-0.1,0.1
                                    c-0.2,0.3-0.6,0.3-1.4,0.4c-0.6,0.1-3.1,0.1-5.3,0.1c0,0,0,0,0-0.2v-9.2c0-0.1,0-0.2,0-0.2c0.4,0,4,0,4.6,0.1c1.7,0.2,2,0.6,2.2,1
                                    s0.2,1.1,0.2,1.1c0,0.5,0.3,0.6,0.5,0.6s0.3-0.2,0.4-0.5c0-0.3,0.1-1,0.1-1.5c0-0.3,0-0.6,0.1-0.7c0.1-0.5,0.1-0.9,0.2-1.2
                                    c0-0.2,0.1-0.3,0.1-0.4c0-0.4-0.2-0.5-0.3-0.5c-0.1,0-0.2,0.1-0.3,0.1c-0.1,0-0.1,0.1-0.2,0.1c-0.3,0.1-0.8,0.1-1.4,0.2
                                    c-0.8,0-7.4,0-7.6,0l-1.4-0.1c-0.7,0-1.6,0-2.4,0c-0.2,0-0.7,0-0.7,0.4c0,0.2,0.2,0.4,0.5,0.4s0.9,0,1.1,0.1
                                    c0.9,0.2,1.2,0.6,1.3,1.7c0.1,1.1,0.1,2,0.1,7.2v6c0,3.3,0,5.8-0.2,7.2c-0.1,1-0.3,1.6-0.8,1.7c-0.2,0-0.6,0.1-1,0.1
                                    c-0.3,0-0.4,0.2-0.4,0.4c0,0.5,0.5,0.5,0.7,0.5s0.5,0,0.8,0c0.4,0,0.7,0,1.1,0c0.6,0,1.2,0,1.3,0c0.5,0,1.3,0,2.6,0.1h0.9
                                    c1.2,0,2.8,0.1,4.8,0.1C285.5,42.8,285.9,42.8,286.2,41.8"></path>
                                  <path class="st0" d="M91.9,57.6c-0.2,0-0.3,0.2-0.3,0.3c0,0.2-0.2,0.7-0.4,0.9c-0.4,0.4-1,0.5-2,0.5c-2.6,0-4.2-2.1-4.2-4.2
                                    c0-1,0.1-2.1,1-3c0.6-0.6,1.4-0.8,2.6-0.8c1,0,1.9,0.3,2.3,0.6c0.3,0.2,0.4,0.7,0.4,1.1c0,0.1,0,0.4,0.3,0.4c0.2,0,0.3-0.3,0.3-0.4
                                    c0-0.1,0-0.2,0-0.4c0-0.3,0-0.6,0-0.8c0-0.3,0-0.4,0.1-0.5c0-0.1,0-0.1,0-0.2c0-0.1,0-0.3-0.3-0.3s-0.7-0.1-1-0.1h-0.2
                                    c-0.6-0.1-1.3-0.1-1.8-0.1c-1.6,0-2.9,0.4-3.8,1.3c-1,1-1.4,2.4-1.4,3.4c0,1.5,0.5,2.8,1.5,3.7l0,0c1,0.9,2.3,1.3,4.1,1.3
                                    c0.7,0,1.7-0.1,2.2-0.3c0.3-0.1,0.3-0.2,0.4-0.5c0.1-0.4,0.3-1.5,0.3-1.6C92.2,57.7,92,57.6,91.9,57.6"></path>
                                  <path class="st0" d="M102.2,50.6c-3.6,0-4.9,3-4.9,4.9c0,2.4,1.5,4.9,4.8,4.9c2.9,0,5-2.1,5-5.1C107.1,52.4,105.1,50.6,102.2,50.6
                                     M105.5,55.6c0,3.8-2.6,3.9-3.1,3.9c-2.2,0-3.7-1.8-3.7-4.4c0-2.4,1.2-3.8,3.3-3.8C103.7,51.3,105.5,52.7,105.5,55.6"></path>
                                  <path class="st0" d="M117.9,58.1c-0.1,0-0.2,0-0.3,0.3c0,0.2-0.1,0.5-0.3,0.6c-0.2,0.3-0.7,0.3-1.3,0.3c-0.9,0-1.2-0.1-1.3-0.2
                                    c-0.2-0.2-0.2-1.4-0.2-2.6v-2.1c0-1.9,0-2.2,0-2.6c0-0.4,0.1-0.5,0.3-0.5c0.1,0,0.3,0,0.4,0c0.2,0,0.3-0.1,0.3-0.3
                                    c0-0.1,0-0.3-0.4-0.3c-0.3,0-0.8,0-1.1,0c-0.1,0-0.2,0-0.2,0h-0.2c-0.3,0-0.8,0-1.2,0c-0.3,0-0.4,0.2-0.4,0.3s0.1,0.3,0.3,0.3
                                    c0.1,0,0.3,0,0.4,0c0.3,0.1,0.4,0.2,0.4,0.5c0,0.4,0,0.7,0,2.6v2.1c0,1.1,0,2.1-0.1,2.6c-0.1,0.4-0.1,0.5-0.2,0.5s-0.2,0-0.3,0
                                    c-0.2,0-0.3,0.1-0.3,0.2c0,0.1,0,0.3,0.4,0.3c0.2,0,0.5,0,0.7,0s0.3,0,0.4,0h0.1c0.3,0,0.7,0,1.2,0h0.3c0.4,0,1,0,1.6,0
                                    s0.8,0,0.9-0.4s0.2-1.1,0.2-1.2C118.2,58.4,118.2,58.1,117.9,58.1"></path>
                                  <path class="st0" d="M128.9,58.1c-0.1,0-0.2,0-0.3,0.3c0,0.2-0.1,0.5-0.3,0.6c-0.2,0.3-0.6,0.3-1.3,0.3c-0.9,0-1.2-0.1-1.3-0.2
                                    c-0.2-0.2-0.2-1.4-0.2-2.6v-2.1c0-1.9,0-2.2,0-2.6c0-0.4,0.1-0.5,0.3-0.5c0.1,0,0.3,0,0.4,0c0.2,0,0.3-0.1,0.3-0.3
                                    c0-0.1,0-0.3-0.4-0.3c-0.3,0-0.8,0-1.1,0c-0.1,0-0.2,0-0.2,0h-0.2c-0.3,0-0.8,0-1.2,0c-0.3,0-0.4,0.2-0.4,0.3s0.1,0.3,0.3,0.3
                                    c0.1,0,0.3,0,0.4,0c0.3,0.1,0.4,0.2,0.4,0.5c0,0.4,0,0.7,0,2.6v2.1c0,1.1,0,2.1-0.1,2.6c0,0.4-0.1,0.5-0.2,0.5s-0.2,0-0.3,0
                                    c-0.2,0-0.3,0.1-0.3,0.2c0,0.1,0,0.3,0.4,0.3c0.2,0,0.4,0,0.7,0c0.2,0,0.3,0,0.4,0h0.1c0.3,0,0.7,0,1.2,0h0.4c0.4,0,1,0,1.6,0
                                    s0.8,0,0.9-0.4c0.1-0.4,0.2-1.1,0.2-1.2C129.2,58.4,129.2,58.1,128.9,58.1"></path>
                                  <path class="st0" d="M139.6,58.2c-0.2,0-0.3,0.2-0.3,0.3c-0.1,0.5-0.2,0.6-0.4,0.7c-0.3,0.1-0.8,0.1-1.1,0.1
                                    c-1.1,0-1.2-0.1-1.2-0.8c0-0.2,0-0.9,0-1.5v-1.5c0.4,0,1.3,0,1.6,0.1c0.4,0,0.4,0.2,0.5,0.3c0,0.1,0,0.2,0,0.4s0.1,0.3,0.3,0.3
                                    c0.3,0,0.3-0.3,0.3-0.4c0-0.1,0-0.5,0-0.8c0-0.2,0.1-0.4,0.1-0.5s0-0.1,0-0.2c0-0.2-0.1-0.3-0.2-0.3c-0.1,0-0.2,0.1-0.3,0.2
                                    c-0.1,0.1-0.2,0.1-0.4,0.1s-1,0-1.8,0v-3.2c0.4,0,1.4,0,1.5,0c0.6,0.1,0.7,0.2,0.7,0.3s0.1,0.3,0.1,0.4c0,0.2,0.1,0.3,0.3,0.3
                                    c0.1,0,0.2,0,0.3-0.3c0-0.1,0-0.3,0-0.6c0-0.1,0-0.2,0-0.2c0-0.2,0-0.3,0.1-0.4c0-0.1,0-0.1,0-0.2c0-0.3-0.2-0.3-0.2-0.3
                                    c-0.1,0-0.1,0-0.2,0.1l0,0c-0.1,0-0.4,0-0.5,0.1h-2.7h-0.5c-0.3,0-0.6,0-0.9,0c-0.3,0-0.4,0.2-0.4,0.3s0.1,0.3,0.3,0.3
                                    c0.1,0,0.3,0,0.4,0c0.3,0.1,0.4,0.2,0.4,0.5c0,0.4,0,0.7,0,2.6v2.1c0,1.1,0,2.1-0.1,2.6c0,0.4-0.1,0.5-0.2,0.5c-0.1,0-0.2,0-0.3,0
                                    c-0.2,0-0.3,0.1-0.3,0.2c0,0.1,0,0.3,0.4,0.3c0.1,0,0.2,0,0.3,0s0.3,0,0.4,0c0.2,0,0.4,0,0.5,0c0.2,0,0.5,0,0.9,0h0.3
                                    c0.4,0,1,0,1.8,0c0.5,0,0.7,0,0.8-0.4c0.1-0.3,0.2-1.1,0.2-1.2C139.8,58.3,139.7,58.2,139.6,58.2"></path>
                                  <path class="st0" d="M153.9,55.3c-0.3,0-0.7,0-1,0c-0.1,0-0.2,0-0.2,0s-0.1,0-0.2,0c-0.3,0-0.8,0-1.2,0c-0.3,0-0.4,0.2-0.4,0.3
                                    s0.1,0.3,0.3,0.3c0.1,0,0.3,0,0.4,0C152,56,152,56,152,57v2c0,0.1,0,0.2-0.2,0.3c-0.3,0.2-0.8,0.2-1.3,0.2c-1.2,0-2.2-0.4-3-1.2
                                    c-0.5-0.4-1.2-1.6-1.2-3.2c0-1.3,0.4-2.3,1.1-2.9c0.9-0.7,1.7-0.8,2.5-0.8c1.4,0,2.4,0.5,2.7,0.9c0.2,0.3,0.2,0.6,0.2,0.7
                                    c0,0.1,0,0.3,0.3,0.3s0.3-0.3,0.3-0.4c0-0.9,0-1.3,0.1-1.5c0-0.1,0-0.2,0-0.2c0-0.1,0-0.3-0.3-0.3s-0.7-0.1-1-0.1h-0.1
                                    c-0.3-0.1-1.1-0.2-1.7-0.2c-0.9,0-2.2,0.1-3.3,0.8c-1.3,0.8-2.1,2.3-2.1,4.1c0,1.7,0.8,3,1.5,3.6c1,0.9,2.4,1.3,4.1,1.3
                                    c0.8,0,1.8-0.1,2.6-0.6c0.2-0.1,0.2-0.3,0.2-0.8v-1.4c0-0.5,0-0.9,0-1.2c0-0.4,0.1-0.5,0.3-0.5c0.1,0,0.2,0,0.2,0
                                    c0.2,0,0.3-0.1,0.3-0.3C154.2,55.5,154.2,55.3,153.9,55.3"></path>
                                  <path class="st0" d="M162.4,59.6c-0.1,0-0.3,0-0.5,0s-0.3-0.1-0.3-0.5c-0.1-0.5-0.1-1.5-0.1-2.6v-2.1c0-1.9,0-2.2,0-2.6
                                    c0-0.4,0.1-0.5,0.3-0.5c0.1,0,0.2,0,0.3,0c0.2,0,0.3-0.1,0.3-0.3c0-0.1,0-0.3-0.4-0.3c-0.3,0-0.7,0-1,0c-0.1,0-0.2,0-0.2,0
                                    s-0.1,0-0.2,0c-0.3,0-0.7,0-1,0s-0.4,0.2-0.4,0.3s0.1,0.3,0.3,0.3c0.1,0,0.2,0,0.3,0s0.2,0.1,0.3,0.5c0,0.4,0,0.7,0,2.6v2.1
                                    c0,1.1,0,2.1-0.1,2.6c0,0.4-0.1,0.5-0.2,0.5c-0.1,0-0.2,0-0.3,0c-0.2,0-0.3,0.1-0.3,0.2c0,0.1,0,0.3,0.4,0.3c0.3,0,0.7,0,1,0
                                    c0.1,0,0.2,0,0.2,0h0.1c0.3,0,0.8,0,1.3,0c0.4,0,0.4-0.2,0.4-0.3C162.7,59.8,162.6,59.6,162.4,59.6"></path>
                                  <path class="st0" d="M176.6,59.6c-0.1,0-0.3,0-0.4-0.1c-0.1,0-0.5-0.1-0.9-1.2c-0.5-1.3-1.6-4.1-2.2-5.8c-0.3-0.8-0.5-1.3-0.6-1.4
                                    c-0.1-0.3-0.2-0.6-0.4-0.6s-0.3,0.2-0.4,0.6l-2.7,7.5c-0.2,0.6-0.4,1-0.9,1c-0.1,0-0.2,0-0.3,0c-0.2,0-0.3,0.1-0.3,0.2
                                    c0,0.2,0.1,0.3,0.4,0.3c0.4,0,0.8,0,1.1,0c0.1,0,0.2,0,0.3,0c0,0,0.2,0,0.3,0c0.2,0,0.5,0,0.6,0c0.3,0,0.4-0.2,0.4-0.3
                                    s-0.1-0.2-0.3-0.2h-0.1c-0.1,0-0.3,0-0.3-0.2s0.1-0.5,0.2-0.8l0.7-2.1h2.5l1.1,2.9c0,0.1,0,0.1,0,0.1c-0.1,0.1-0.2,0.1-0.2,0.2
                                    c0,0.2,0.2,0.2,0.5,0.3h0.1c0.8,0,1.7,0,1.9,0c0.4,0,0.4-0.2,0.4-0.3C176.9,59.9,176.9,59.6,176.6,59.6 M172.9,55.8H171l0.9-2.9
                                    L172.9,55.8z"></path>
                                  <path class="st0" d="M187.8,50.7c0,0-0.1,0-0.2,0c-0.1,0-0.1,0-0.2,0c-0.2,0-0.5,0.1-0.8,0.1h-4.5c-0.1,0-0.6,0-0.9-0.1
                                    c-0.2,0-0.3-0.1-0.4-0.1c-0.1,0-0.1-0.1-0.2-0.1c-0.2,0-0.2,0.2-0.3,0.4c0,0-0.3,1.1-0.3,1.3s0.1,0.3,0.2,0.3
                                    c0.1,0,0.2-0.1,0.3-0.2c0-0.1,0.1-0.2,0.2-0.3c0.1-0.2,0.3-0.3,1.1-0.3h1.6v4.9c0,1.1,0,2.1-0.1,2.6c0,0.4-0.1,0.5-0.2,0.5
                                    c-0.1,0-0.2,0-0.3,0c-0.2,0-0.3,0.1-0.3,0.2c0,0.1,0,0.3,0.4,0.3c0.3,0,0.7,0,1,0c0.1,0,0.2,0,0.2,0h0.1c0.3,0,0.8,0,1.3,0
                                    c0.3,0,0.4-0.2,0.4-0.3s-0.1-0.2-0.3-0.2c-0.1,0-0.3,0-0.5,0s-0.3-0.1-0.3-0.5c-0.1-0.5-0.1-1.5-0.1-2.6v-4.9h1.3
                                    c1.3,0,1.3,0.4,1.3,0.5v0.1c0,0.1,0,0.4,0.3,0.4c0.1,0,0.3-0.1,0.3-0.3c0,0,0-0.2,0-0.4c0-0.3,0-0.7,0-1
                                    C188,50.7,187.9,50.7,187.8,50.7"></path>
                                  <path class="st0" d="M198.6,58.2c-0.2,0-0.3,0.2-0.3,0.3c-0.1,0.5-0.2,0.6-0.4,0.7c-0.3,0.1-0.8,0.1-1.1,0.1
                                    c-1.1,0-1.2-0.1-1.2-0.8c0-0.2,0-0.9,0-1.5v-1.5c0.4,0,1.3,0,1.6,0.1c0.4,0,0.5,0.2,0.5,0.3s0,0.2,0,0.4s0.1,0.3,0.3,0.3
                                    c0.3,0,0.3-0.3,0.3-0.4c0-0.1,0-0.5,0.1-0.8c0-0.2,0.1-0.4,0.1-0.5s0-0.1,0-0.2c0-0.2-0.1-0.3-0.2-0.3c-0.1,0-0.2,0.1-0.3,0.2v0.1
                                    c-0.1,0.1-0.2,0.1-0.5,0.1c-0.2,0-1,0-1.8,0v-3.2c0.3,0,1.4,0,1.5,0c0.6,0.1,0.7,0.2,0.7,0.3s0.1,0.2,0.1,0.4s0.1,0.3,0.3,0.3
                                    c0.1,0,0.2,0,0.3-0.3c0-0.1,0-0.3,0-0.6c0-0.1,0-0.2,0-0.2c0-0.2,0-0.3,0.1-0.4c0-0.1,0-0.1,0-0.2c0-0.2-0.1-0.3-0.2-0.3
                                    c-0.1,0-0.1,0-0.2,0.1c-0.1,0-0.4,0-0.5,0.1h-2.7h-0.5c-0.3,0-0.6,0-0.9,0c-0.3,0-0.4,0.2-0.4,0.3s0.1,0.3,0.3,0.3
                                    c0.1,0,0.3,0,0.4,0c0.3,0.1,0.4,0.2,0.4,0.5c0,0.4,0,0.7,0,2.6v2.1c0,1.1,0,2.1-0.1,2.6c0,0.4-0.1,0.5-0.2,0.5c-0.1,0-0.2,0-0.3,0
                                    c-0.2,0-0.3,0.1-0.3,0.2c0,0.1,0,0.3,0.4,0.3c0.1,0,0.2,0,0.3,0s0.3,0,0.4,0c0.2,0,0.4,0,0.5,0c0.2,0,0.5,0,0.9,0h0.3
                                    c0.4,0,1,0,1.8,0c0.5,0,0.7,0,0.8-0.4c0.1-0.3,0.2-1.1,0.2-1.2C198.8,58.3,198.8,58.2,198.6,58.2"></path>
                                  <path class="st0" d="M215,54.7l-0.3-0.3c-1.2-0.9-1.4-1.3-1.4-1.9c0-0.7,0.5-1.2,1.3-1.2c1,0,1.3,0.4,1.3,0.5
                                    c0.1,0.1,0.1,0.4,0.1,0.6c0,0.1,0.1,0.3,0.3,0.3c0.3,0,0.3-0.3,0.3-0.5c0-0.6,0-1,0-1.2v-0.1c0-0.1,0-0.3-0.3-0.3
                                    c-0.1,0-0.2,0-0.4-0.1c-0.3-0.1-0.6-0.1-1.2-0.1c-1.6,0-2.7,0.9-2.7,2.3c0,0.8,0.3,1.6,1.6,2.7l0.5,0.4c1,0.9,1.3,1.3,1.3,2
                                    s-0.5,1.4-1.5,1.4c-0.4,0-1.4-0.1-1.6-1.1c0-0.1,0-0.3,0-0.4c0-0.1,0-0.3-0.3-0.3c-0.2,0-0.3,0.2-0.3,0.4c0,0.1,0,0.1,0,0.2
                                    c0,0.3-0.1,0.6-0.1,1.1c0,0.3,0,0.5,0.3,0.6c0.5,0.2,1,0.3,1.7,0.3s1.4-0.2,1.9-0.5c0.8-0.6,1.1-1.5,1.1-2.1
                                    C216.8,56.5,216.4,55.8,215,54.7"></path>
                                  <path class="st0" d="M230.3,57.6c-0.2,0-0.3,0.2-0.3,0.3c0,0.2-0.2,0.7-0.4,0.9c-0.4,0.4-1,0.5-2,0.5c-2.6,0-4.2-2.1-4.2-4.2
                                    c0-1.1,0.1-2.1,1-3c0.6-0.6,1.4-0.8,2.6-0.8c1.1,0,1.9,0.3,2.3,0.6c0.3,0.2,0.4,0.7,0.4,1.1c0,0.1,0,0.4,0.3,0.4s0.3-0.3,0.3-0.4
                                    c0-0.1,0-0.3,0-0.5s0-0.5,0-0.7s0-0.4,0-0.5s0-0.1,0-0.2c0-0.1-0.1-0.3-0.3-0.3c-0.3,0-0.7-0.1-1-0.1h-0.2
                                    c-0.5-0.1-1.2-0.1-1.8-0.1c-1.6,0-2.9,0.4-3.8,1.3c-1,1-1.4,2.4-1.4,3.4c0,1.5,0.5,2.8,1.5,3.7s2.3,1.3,4.1,1.3
                                    c0.7,0,1.7-0.1,2.2-0.3c0.3-0.1,0.3-0.2,0.4-0.5c0.1-0.4,0.3-1.5,0.3-1.6C230.6,57.7,230.3,57.6,230.3,57.6"></path>
                                  <path class="st0" d="M245.4,59.6c-0.1,0-0.3,0-0.5,0s-0.3-0.1-0.3-0.5c-0.1-0.5-0.1-1.5-0.1-2.6v-2.1c0-1.9,0-2.2,0-2.6
                                    c0-0.4,0.1-0.5,0.3-0.5c0.1,0,0.2,0,0.3,0c0.2,0,0.3-0.1,0.3-0.3c0-0.1,0-0.3-0.4-0.3c-0.3,0-0.7,0-1,0c-0.1,0-0.2,0-0.2,0h-0.1
                                    c-0.3,0-0.8,0-1.2,0c-0.3,0-0.4,0.2-0.4,0.3s0.1,0.3,0.3,0.3c0.1,0,0.3,0,0.4,0c0.3,0.1,0.4,0.2,0.4,0.5c0,0.4,0,0.7,0,2.6v0.1
                                    h-4.9v-0.1c0-1.9,0-2.2,0-2.6c0-0.4,0.1-0.5,0.3-0.5c0.1,0,0.2,0,0.3,0c0.2,0,0.3-0.1,0.3-0.3c0-0.1,0-0.3-0.4-0.3
                                    c-0.3,0-0.7,0-1,0c-0.1,0-0.2,0-0.2,0h-0.2c-0.3,0-0.8,0-1.2,0c-0.3,0-0.4,0.2-0.4,0.3s0.1,0.3,0.3,0.3c0.1,0,0.3,0,0.4,0
                                    c0.3,0.1,0.4,0.2,0.4,0.5c0,0.4,0,0.7,0,2.6v2.1c0,1.1,0,2.1-0.1,2.6c-0.1,0.4-0.1,0.5-0.2,0.5c-0.1,0-0.2,0-0.3,0
                                    c-0.2,0-0.3,0.1-0.3,0.2c0,0.1,0.1,0.3,0.4,0.3c0.3,0,0.7,0,1,0c0.1,0,0.2,0,0.2,0h0.1c0.3,0,0.8,0,1.3,0c0.3,0,0.4-0.2,0.4-0.3
                                    s-0.1-0.2-0.3-0.2c-0.1,0-0.3,0-0.5,0s-0.3-0.1-0.3-0.5c-0.1-0.5-0.1-1.5-0.1-2.6v-1.2h4.9v1.2c0,1.1,0,2.1-0.1,2.6
                                    c0,0.4-0.1,0.5-0.2,0.5c-0.1,0-0.2,0-0.3,0c-0.2,0-0.3,0.1-0.3,0.2c0,0.1,0,0.3,0.4,0.3c0.3,0,0.7,0,1,0c0.2,0,0.2,0,0.3,0
                                    c0.3,0,0.8,0,1.3,0c0.4,0,0.4-0.2,0.4-0.3C245.7,59.8,245.6,59.6,245.4,59.6"></path>
                                  <path class="st0" d="M255.6,50.6c-3.6,0-4.9,3-4.9,4.9c0,2.4,1.5,4.9,4.8,4.9c2.9,0,5-2.1,5-5.1C260.5,52.4,258.5,50.6,255.6,50.6
                                     M259,55.6c0,3.8-2.6,3.9-3.1,3.9c-2.2,0-3.7-1.8-3.7-4.4c0-2.4,1.2-3.8,3.3-3.8C257.2,51.3,259,52.7,259,55.6"></path>
                                  <path class="st0" d="M270.6,50.6c-3.6,0-4.9,3-4.9,4.9c0,2.4,1.5,4.9,4.8,4.9c2.9,0,5-2.1,5-5.1C275.5,52.4,273.5,50.6,270.6,50.6
                                     M270.5,51.3c1.7,0,3.5,1.3,3.5,4.3c0,3.7-2.6,3.9-3.1,3.9c-2.2,0-3.7-1.8-3.7-4.4C267.2,52.7,268.4,51.3,270.5,51.3"></path>
                                  <path class="st0" d="M286.4,58.1c-0.2,0-0.3,0.1-0.3,0.3s-0.1,0.5-0.3,0.6c-0.2,0.3-0.7,0.3-1.3,0.3c-0.9,0-1.2-0.1-1.3-0.2
                                    c-0.2-0.2-0.2-1.4-0.2-2.6v-2.1c0-1.9,0-2.2,0-2.6c0-0.4,0.1-0.5,0.3-0.5c0.1,0,0.3,0,0.4,0c0.2,0,0.3-0.1,0.3-0.3
                                    c0-0.1,0-0.3-0.4-0.3c-0.3,0-0.8,0-1.1,0c-0.1,0-0.2,0-0.2,0h-0.2c-0.3,0-0.8,0-1.2,0c-0.3,0-0.4,0.2-0.4,0.3s0.1,0.3,0.3,0.3
                                    c0.1,0,0.3,0,0.4,0c0.3,0.1,0.4,0.2,0.4,0.5c0,0.4,0,0.7,0,2.6v2.1c0,1.1,0,2.1-0.1,2.6c0,0.4-0.1,0.5-0.2,0.5s-0.3,0-0.3,0
                                    c-0.2,0-0.3,0.1-0.3,0.2c0,0.1,0,0.3,0.4,0.3c0.2,0,0.5,0,0.7,0s0.3,0,0.4,0h0.1c0.3,0,0.7,0,1.2,0h0.4c0.4,0,1,0,1.6,0
                                    s0.8,0,0.9-0.4s0.2-1.1,0.2-1.2C286.6,58.4,286.6,58.1,286.4,58.1"></path>
                                </g>
                                </svg>
